<svg width="505" height="148" viewBox="0 0 505 148" fill="none" xmlns="http://www.w3.org/2000/svg">
<path d="M137.666 0.277344H0V134.515H137.666V0.277344Z" fill="white"/>
<path d="M132.853 68.5029V82.8738C130.296 81.8739 127.281 81.5167 125.71 79.8168C124.467 78.474 124.896 75.5313 124.81 73.2314C124.838 72.8324 124.96 72.4457 125.166 72.103C125.372 71.7603 125.656 71.4714 125.996 71.26C128.139 70.2458 130.381 69.4743 132.853 68.5029Z" fill="#FFC829"/>
<path d="M115.968 76.2032C113.411 75.2033 110.425 74.8605 108.939 73.1891C107.711 71.7606 108.154 68.9035 108.039 66.6179C108.033 66.2484 108.114 65.8826 108.275 65.5501C108.437 65.2175 108.674 64.9276 108.968 64.7037C111.168 63.6752 113.482 62.8752 115.968 61.8467V76.2032Z" fill="#FFC829"/>
<mask id="mask0_1222_705" style="mask-type:luminance" maskUnits="userSpaceOnUse" x="0" y="-2" width="138" height="138">
<path d="M137.666 -1.83691H0V135.829H137.666V-1.83691Z" fill="white"/>
</mask>
<g mask="url(#mask0_1222_705)">
<path d="M68.5708 147.214C69.9993 145.928 71.2707 144.571 72.7563 143.4C73.1849 143.086 73.5265 142.668 73.7489 142.186C73.9713 141.704 74.0673 141.173 74.0277 140.643C74.0277 127.915 74.0277 115.201 74.0277 102.473V99.916L82.6845 100.859L82.7845 100.545C82.3131 100.33 81.8417 100.087 81.356 99.9017C77.0705 98.1875 72.6992 96.4447 68.3279 94.8019C67.8766 94.693 67.4813 94.4215 67.2177 94.0393C66.9541 93.6571 66.8407 93.1911 66.8994 92.7305C66.8994 85.8356 66.8994 78.9311 66.8994 72.0171C66.8227 71.5506 66.9283 71.0726 67.1941 70.6817C67.46 70.2909 67.8659 70.0172 68.3279 69.9172C70.1278 69.3029 71.8849 68.4886 73.8992 67.7887V80.4882C76.4276 79.4739 78.6704 78.6597 80.8417 77.6311C81.1846 77.474 81.3131 76.5312 81.3274 75.9598C81.3274 72.7599 81.3274 69.56 81.3274 66.3601C81.2511 65.8954 81.3571 65.4192 81.6232 65.0307C81.8893 64.6422 82.2951 64.3713 82.7559 64.2745C84.613 63.646 86.4129 62.846 88.47 62.0746V74.7741C90.8842 73.8313 93.0841 73.0456 95.1983 72.0885C95.584 71.9171 95.8125 71.06 95.8268 70.5029C95.8268 67.1744 95.8982 63.8603 95.8268 60.5033C95.7628 60.0993 95.856 59.6862 96.0872 59.3488C96.3183 59.0114 96.6699 58.7753 97.0697 58.689C98.9696 58.0319 100.841 57.2605 102.969 56.4463V63.5889C102.969 68.5172 102.969 73.4313 102.969 78.3597C102.884 78.9145 103.014 79.4809 103.333 79.943C103.651 80.4051 104.135 80.7279 104.684 80.8453C115.283 84.9499 125.873 89.0831 136.454 93.2448C137.139 93.5162 137.882 93.8305 138.939 94.2876C135.94 95.459 133.311 96.5447 130.625 97.5018C130.005 97.5706 129.378 97.4511 128.826 97.1589C120.969 94.1019 113.121 91.0306 105.284 87.945C104.641 87.6879 103.984 87.4736 103.127 87.1593V132.158L115.183 133.743V108.687C116.585 109.136 117.95 109.69 119.269 110.344C119.683 110.587 119.826 111.53 119.84 112.158C119.84 119.301 119.84 126.343 119.84 133.443C119.736 134.059 119.864 134.692 120.199 135.22C120.534 135.748 121.052 136.132 121.654 136.3C127.739 138.858 133.197 142.703 137.654 147.571C114.426 135.343 91.5841 135.343 68.5708 147.214ZM90.8842 108.501C89.4557 109.016 88.47 109.473 87.3843 109.801C87.1627 109.834 86.9497 109.911 86.7578 110.027C86.5659 110.142 86.3987 110.295 86.266 110.476C86.1332 110.656 86.0374 110.861 85.9842 111.079C85.931 111.297 85.9213 111.523 85.9558 111.744C85.9558 119.215 85.9558 126.686 85.9558 134.157C85.9825 134.575 86.035 134.99 86.1129 135.4C86.904 135.082 87.7213 134.833 88.5557 134.657C90.3556 134.4 90.8699 133.5 90.8413 131.686C90.7127 124.729 90.8413 117.758 90.8413 110.801C90.927 110.13 90.9128 109.444 90.9128 108.501H90.8842Z" fill="#0055CC"/>
</g>
<path d="M180.167 95.5554C176.552 94.7963 172.492 93.7842 167.985 92.519C166.043 91.9006 164.054 91.4353 162.039 91.1273L163.178 67.6316H173.444L176.227 83.8978C177.91 85.4113 179.93 86.5018 182.119 87.0788C185.261 88.0485 188.536 88.5181 191.824 88.4705C197.482 88.4705 201.711 87.2234 204.476 84.7293C205.913 83.4108 207.039 81.7899 207.774 79.9833C208.508 78.1768 208.833 76.2298 208.723 74.2827C208.781 71.5086 207.888 68.7983 206.193 66.6014C204.251 64.2434 201.885 62.2695 199.217 60.7817C195.276 58.5532 191.215 56.544 187.053 54.7631C180.639 51.9478 174.749 48.0674 169.63 43.2864C165.027 38.8643 162.726 32.8398 162.726 25.2127C162.663 20.6699 163.919 16.2063 166.341 12.3624C169.11 8.33705 173 5.2136 177.528 3.37976C183.15 0.986391 189.223 -0.160488 195.331 0.0180641C199.001 -0.015177 202.666 0.281226 206.283 0.903683C209.464 1.50011 212.898 2.29535 216.622 3.32555C218.814 3.9039 220.459 4.28346 221.556 4.46419L220.797 26.6405H210.657L208 11.043C206.659 9.98381 205.106 9.22561 203.446 8.81992C200.977 8.08682 198.412 7.72739 195.837 7.75358C190.758 7.75358 186.945 8.91031 184.36 11.2418C183.078 12.4186 182.07 13.8616 181.405 15.4695C180.74 17.0774 180.434 18.8114 180.51 20.5497C180.45 23.5079 181.457 26.3887 183.348 28.6648C185.295 30.9751 187.632 32.9265 190.252 34.4303C192.963 35.9846 197.235 38.2016 203.066 41.0814C207.251 43.061 211.307 45.3005 215.212 47.7867C218.655 50.0482 221.627 52.9579 223.959 56.3536C226.43 59.9869 227.695 64.3058 227.574 68.698C227.566 73.3571 226.365 77.9365 224.086 82.0001C221.409 86.5575 217.44 90.2182 212.681 92.519C206.384 95.5308 199.451 96.9697 192.475 96.7121C188.343 96.7509 184.219 96.3633 180.167 95.5554Z" fill="white"/>
<path d="M278.488 0.650616H297.881L327.142 86.5185L334.498 87.7837V95.3746H297.122V87.7837L306.61 86.5185L301.676 70.0354H268.854L263.92 86.5185L274.186 87.6572V95.2481H241.87L241.744 87.6572L249.335 86.392L278.488 0.650616ZM287.235 22.0679L284.94 12.1816L282.536 22.1944L271.258 61.0889H299.146L287.235 22.0679Z" fill="white"/>
<path d="M360.47 10.6092L350.583 8.96451V1.10249H369.47C372.344 1.10249 376.049 0.93983 380.622 0.596431L384.544 0.343401C386.062 0.343401 387.833 0.216872 389.858 0.216872C402.618 0.216872 411.552 2.02424 416.661 5.63897C421.77 9.2537 424.324 14.5975 424.324 21.6703C424.511 27.416 422.494 33.0158 418.685 37.3221C414.837 41.5501 409.608 44.2672 403.937 44.9853C412.287 44.9009 418.854 46.8047 423.637 50.6966C426.031 52.653 427.932 55.1441 429.188 57.9693C430.444 60.7944 431.019 63.8749 430.867 66.9628C430.998 70.9604 430.225 74.9361 428.608 78.5941C426.99 82.252 424.568 85.4981 421.523 88.0909C415.353 93.4046 405.051 96.0614 390.617 96.0614C386.809 96.0614 383.303 95.9349 380.098 95.6819C379.248 95.6819 377.802 95.6819 375.778 95.5011C373.754 95.3204 371.675 95.3023 369.579 95.3023H350.439V87.7114L360.452 86.4462L360.47 10.6092ZM384.544 42.2923H390.49C395.659 42.2923 399.527 40.6837 402.021 37.4666C404.515 34.2495 405.835 29.7492 405.835 23.9114C405.835 18.3447 404.515 14.2782 401.895 11.7479C399.274 9.21756 394.936 7.95239 388.845 7.95239C387.255 7.95239 383.911 8.11505 378.833 8.45845V42.1658C379.772 42.3104 381.761 42.3465 384.544 42.3465V42.2923ZM389.966 88.0367C397.195 88.0367 402.346 86.3378 405.564 82.958C408.781 79.5783 410.371 74.6803 410.371 68.2641C410.371 61.848 408.925 57.6911 405.997 55.0162C403.069 52.3413 398.461 51.04 392.135 51.04C385.032 51.04 380.604 51.04 378.815 51.293V86.8981C382.452 87.8797 386.221 88.2823 389.984 88.0909L389.966 88.0367Z" fill="white"/>
<path d="M464.122 10.6092L453.278 8.96448V1.10246H493.817V8.96448L482.666 10.6092V86.5185L493.817 87.9102V95.3746H453.278V87.7837L464.122 86.5185V10.6092Z" fill="white"/>
<path d="M177.275 132.661C175.257 132.719 173.253 132.311 171.419 131.468C169.905 130.738 168.577 129.675 167.533 128.359C166.574 127.112 165.846 125.705 165.382 124.202C164.942 122.798 164.711 121.336 164.695 119.864V119.051C164.699 117.518 164.937 115.994 165.4 114.533C165.864 113.043 166.599 111.652 167.569 110.43C168.6 109.147 169.919 108.125 171.419 107.448C173.188 106.648 175.116 106.258 177.058 106.309C179.038 106.257 181.004 106.659 182.805 107.484C184.346 108.205 185.663 109.329 186.619 110.737C187.617 112.209 188.237 113.903 188.426 115.671H184.992C184.886 114.361 184.409 113.107 183.618 112.057C182.899 111.141 181.952 110.43 180.871 109.996C179.689 109.52 178.423 109.286 177.148 109.309C175.808 109.281 174.476 109.54 173.244 110.069C172.161 110.566 171.208 111.308 170.461 112.237C169.704 113.188 169.134 114.274 168.78 115.436C168.394 116.714 168.205 118.042 168.22 119.376C168.21 120.675 168.399 121.967 168.78 123.208C169.136 124.383 169.719 125.476 170.497 126.425C171.265 127.372 172.242 128.127 173.353 128.63C174.612 129.198 175.984 129.476 177.365 129.443C179.298 129.501 181.198 128.937 182.787 127.835C183.526 127.28 184.144 126.58 184.604 125.778C185.064 124.977 185.356 124.09 185.462 123.172H188.878C188.652 124.858 188.033 126.468 187.07 127.871C186.118 129.32 184.795 130.487 183.239 131.251C181.396 132.202 179.348 132.687 177.275 132.661Z" fill="#E4E4E4"/>
<path d="M211.687 132.661C209.693 132.714 207.713 132.306 205.903 131.468C204.349 130.73 202.979 129.656 201.891 128.323C200.869 127.08 200.074 125.666 199.541 124.148C199.048 122.773 198.785 121.325 198.764 119.864V119.051C198.775 117.523 199.043 116.007 199.559 114.569C200.085 113.052 200.901 111.652 201.963 110.448C203.066 109.167 204.435 108.143 205.975 107.448C207.772 106.651 209.722 106.262 211.687 106.309C213.645 106.263 215.59 106.651 217.38 107.448C218.925 108.143 220.301 109.167 221.41 110.448C222.466 111.657 223.281 113.055 223.814 114.569C224.3 116.013 224.538 117.528 224.519 119.051V119.81C224.504 121.27 224.248 122.718 223.76 124.094C223.22 125.609 222.425 127.021 221.41 128.269C220.323 129.601 218.952 130.676 217.398 131.413C215.614 132.258 213.66 132.684 211.687 132.661ZM211.687 129.588C213.052 129.614 214.405 129.329 215.645 128.757C216.792 128.238 217.81 127.473 218.627 126.516C219.46 125.575 220.105 124.483 220.525 123.298C220.961 122.087 221.181 120.809 221.175 119.521C221.186 118.192 220.966 116.871 220.525 115.617C220.109 114.436 219.464 113.349 218.627 112.418C217.808 111.477 216.789 110.73 215.645 110.231C214.395 109.695 213.046 109.43 211.687 109.454C210.327 109.43 208.978 109.695 207.729 110.231C206.582 110.734 205.558 111.48 204.728 112.418C203.929 113.361 203.316 114.446 202.921 115.617C202.48 116.871 202.26 118.192 202.27 119.521C202.264 120.809 202.484 122.087 202.921 123.298C203.32 124.473 203.932 125.564 204.728 126.516C205.556 127.47 206.579 128.234 207.729 128.757C208.968 129.329 210.321 129.614 211.687 129.588Z" fill="#E4E4E4"/>
<path d="M236.954 132.046V107.05H242.376L255.027 129.046H256.13L255.443 129.66V107.05H258.859V132.046H253.31L240.659 110.069H239.574L240.243 109.454V132.046H236.954Z" fill="#E4E4E4"/>
<path d="M280.999 132.661C279.175 132.717 277.361 132.371 275.685 131.648C274.316 131.043 273.154 130.05 272.342 128.793C271.556 127.57 271.148 126.143 271.167 124.69H274.529C274.539 125.481 274.744 126.257 275.125 126.949C275.597 127.746 276.304 128.378 277.149 128.757C278.352 129.319 279.673 129.579 280.999 129.516C282.268 129.564 283.532 129.336 284.704 128.847C285.572 128.466 286.307 127.837 286.819 127.04C287.268 126.345 287.507 125.535 287.506 124.708C287.506 124.204 287.385 123.708 287.152 123.261C286.919 122.814 286.581 122.43 286.168 122.142C285.004 121.379 283.655 120.948 282.264 120.895L279.499 120.66C277.547 120.587 275.676 119.861 274.185 118.599C273.53 118.013 273.013 117.29 272.669 116.481C272.325 115.671 272.164 114.797 272.197 113.918C272.18 112.535 272.569 111.177 273.318 110.014C274.083 108.851 275.152 107.92 276.408 107.321C277.854 106.642 279.438 106.308 281.035 106.345C282.618 106.317 284.187 106.644 285.626 107.303C286.886 107.897 287.956 108.829 288.717 109.996C289.482 111.232 289.872 112.664 289.837 114.117H286.475C286.502 113.322 286.328 112.532 285.969 111.822C285.558 111.055 284.929 110.426 284.162 110.014C283.206 109.512 282.132 109.275 281.053 109.328C279.991 109.29 278.937 109.514 277.981 109.978C277.226 110.356 276.598 110.947 276.173 111.677C275.777 112.357 275.571 113.131 275.577 113.918C275.577 114.372 275.67 114.821 275.851 115.238C276.031 115.654 276.295 116.029 276.625 116.34C277.499 117.115 278.621 117.551 279.788 117.569L282.553 117.822C284.088 117.907 285.594 118.268 287 118.888C288.138 119.411 289.127 120.213 289.873 121.22C290.562 122.251 290.915 123.469 290.885 124.708C290.906 126.161 290.469 127.583 289.638 128.775C288.77 130.007 287.575 130.971 286.186 131.558C284.555 132.288 282.787 132.664 280.999 132.661Z" fill="#E4E4E4"/>
<path d="M313.224 132.661C311.246 132.727 309.284 132.278 307.531 131.359C306.013 130.509 304.79 129.217 304.025 127.654C303.214 125.925 302.812 124.033 302.85 122.124V107.05H306.212V122.539C306.187 123.79 306.459 125.029 307.007 126.154C307.535 127.206 308.366 128.075 309.393 128.648C310.571 129.273 311.892 129.578 313.224 129.534C314.549 129.577 315.862 129.278 317.038 128.666C318.045 128.122 318.869 127.292 319.406 126.281C319.97 125.129 320.249 123.858 320.219 122.576V107.086H323.563V122.16C323.606 124.068 323.21 125.96 322.406 127.69C321.656 129.246 320.452 130.537 318.954 131.395C317.185 132.304 315.211 132.74 313.224 132.661Z" fill="#E4E4E4"/>
<path d="M337.19 132.046V107.05H340.552V132.046H337.19ZM339.865 132.046V129.046H351.306V132.046H339.865Z" fill="#E4E4E4"/>
<path d="M357.668 110.014V106.996H376.229V110.014H357.668ZM365.277 131.992V109.382H368.638V132.046L365.277 131.992Z" fill="#E4E4E4"/>
<path d="M394.972 132.661C393.148 132.717 391.334 132.371 389.658 131.648C388.292 131.037 387.132 130.046 386.314 128.793C385.529 127.57 385.12 126.143 385.14 124.69H388.501C388.511 125.481 388.716 126.257 389.098 126.949C389.569 127.746 390.277 128.378 391.122 128.757C392.324 129.319 393.646 129.579 394.972 129.516C396.241 129.564 397.505 129.336 398.677 128.847C399.544 128.466 400.28 127.837 400.791 127.04C401.241 126.345 401.479 125.535 401.478 124.708C401.479 124.204 401.357 123.708 401.124 123.261C400.891 122.814 400.554 122.43 400.141 122.142C398.977 121.379 397.627 120.948 396.237 120.895L393.472 120.66C391.52 120.587 389.649 119.861 388.158 118.599C387.503 118.013 386.985 117.29 386.642 116.48C386.298 115.671 386.137 114.797 386.17 113.918C386.142 112.5 386.531 111.104 387.29 109.906C388.055 108.743 389.124 107.812 390.381 107.213C391.828 106.536 393.411 106.202 395.008 106.237C396.59 106.209 398.159 106.536 399.598 107.195C400.859 107.788 401.929 108.721 402.689 109.888C403.455 111.123 403.844 112.555 403.81 114.009H400.448C400.423 113.241 400.212 112.49 399.833 111.822C399.427 111.051 398.797 110.421 398.026 110.014C397.07 109.512 395.996 109.275 394.917 109.327C393.855 109.29 392.801 109.514 391.845 109.978C391.09 110.356 390.462 110.947 390.038 111.677C389.641 112.357 389.435 113.131 389.441 113.918C389.441 114.372 389.534 114.821 389.715 115.238C389.895 115.654 390.159 116.029 390.489 116.34C391.364 117.112 392.486 117.548 393.652 117.569L396.418 117.822C397.952 117.907 399.458 118.268 400.864 118.888C402.002 119.411 402.991 120.213 403.737 121.22C404.426 122.251 404.779 123.469 404.749 124.708C404.77 126.161 404.333 127.583 403.502 128.775C402.635 130.007 401.439 130.971 400.05 131.558C398.452 132.273 396.723 132.648 394.972 132.661Z" fill="#E4E4E4"/>
<path d="M431.95 132.046V107.05H435.312V132.046H431.95ZM434.625 132.046V129.046H446.066V132.046H434.625Z" fill="#E4E4E4"/>
<path d="M452.428 110.014V106.996H471.007V110.014H452.428ZM460.037 131.992V109.382H463.398V132.046L460.037 131.992Z" fill="#E4E4E4"/>
<path d="M482.376 132.191V106.888H485.719V132.191H482.376ZM485.032 132.191V129.1H491.268C492.646 129.128 494.016 128.883 495.298 128.377C496.436 127.914 497.464 127.218 498.317 126.335C499.155 125.46 499.801 124.419 500.214 123.28C500.655 122.077 500.876 120.803 500.865 119.521C500.883 118.209 500.662 116.905 500.214 115.671C499.8 114.543 499.154 113.515 498.317 112.653C497.465 111.786 496.435 111.114 495.298 110.683C494.009 110.208 492.642 109.975 491.268 109.996H485.032V106.924H490.924C492.937 106.879 494.939 107.229 496.816 107.954C498.384 108.592 499.801 109.553 500.973 110.773C502.068 111.901 502.917 113.242 503.468 114.713C504.004 116.128 504.279 117.628 504.281 119.141V119.901C504.274 121.395 503.999 122.877 503.468 124.274C502.913 125.755 502.065 127.107 500.973 128.251C499.802 129.482 498.386 130.455 496.816 131.106C494.948 131.868 492.942 132.237 490.924 132.191H485.032Z" fill="#E4E4E4"/>
</svg>
